<?xml version="1.0" encoding="utf-8"?>
<!-- Generator: Adobe Illustrator 26.0.2, SVG Export Plug-In . SVG Version: 6.00 Build 0)  -->
<svg version="1.1" id="katman_1" xmlns="http://www.w3.org/2000/svg" xmlns:xlink="http://www.w3.org/1999/xlink" x="0px" y="0px"
	 viewBox="0 0 56.6 34.4" style="enable-background:new 0 0 56.6 34.4;" xml:space="preserve">
<style type="text/css">
	.st0{fill:#FBBA00;}
	.st1{fill:#1D1D1B;}
</style>
<g>
	<rect x="5.2" y="0" class="st0" width="46.2" height="34.4"/>
	<g>
		<path class="st1" d="M22.1,23c0.7-0.6,0.8-1.2,0.8-1.8v-2.6h-3.6V22c0,0.5-0.4,0.9-0.9,0.9c-0.5,0-0.9-0.4-0.9-0.9v-9.9
			c0-0.5,0.4-0.9,0.9-0.9c0.5,0,0.9,0.4,0.9,0.9v3.5h3.6V12l0,0c0-2-1.3-3.7-4.5-3.7l0,0c-3.3,0-4.5,1.7-4.5,3.7l0,10.3
			c0,2,1.6,3.5,3.6,3.5h1.1L22.1,23z"/>
		<polygon class="st1" points="36.3,23.4 36.3,12 33.8,12 33.8,8.7 42.8,8.7 42.8,12 40.3,12 40.3,25.8 39.2,25.8 		"/>
		<path class="st1" d="M31.7,8.7h-5l-2.9,13.1l5.4-4.4l5.7,4.8L31.7,8.7z M28.2,16.5l1-5l1,5H28.2z"/>
		<polygon class="st1" points="37.9,25.9 29.2,18.5 20.1,25.9 		"/>
		<path class="st1" d="M43.4,9.5c0-0.4,0.3-0.7,0.7-0.7c0.4,0,0.6,0.3,0.6,0.7c0,0.4-0.3,0.7-0.6,0.7C43.7,10.1,43.4,9.8,43.4,9.5z
			 M44.1,10.3c0.4,0,0.8-0.3,0.8-0.8c0-0.5-0.4-0.8-0.8-0.8c-0.4,0-0.8,0.3-0.8,0.8C43.3,9.9,43.7,10.3,44.1,10.3z M43.9,9.5h0.2
			l0.2,0.4h0.2l-0.3-0.4c0.1,0,0.2-0.1,0.2-0.3c0-0.2-0.1-0.3-0.3-0.3h-0.4v0.9h0.1V9.5z M43.9,9.4V9.1h0.2c0.1,0,0.2,0,0.2,0.1
			c0,0.1-0.1,0.2-0.2,0.2H43.9z"/>
	</g>
</g>
</svg>
