<?xml version="1.0" encoding="UTF-8"?><svg id="Layer_1" xmlns="http://www.w3.org/2000/svg" viewBox="0 0 44.89 38.61"><defs><style>.cls-1{fill:#ec6907;}.cls-2{fill:#fff;}.cls-3{fill-rule:evenodd;}.cls-3,.cls-4{fill:#1d1d1b;}</style></defs><path class="cls-4" d="M22.44,0c2.5,2.57,8.07,4.49,14.81,4.96v4.31c-1.06,.14-1.85,.88-1.85,1.77,0,.04,0,.08,0,.11h9.48v11.94h-8.98s0,.03,0,.05c0,.89,1.21,1.62,2.73,1.66-4.54,4.15-12.17,9.66-16.2,9.57-4.03,.09-11.66-5.42-16.2-9.57,1.52-.05,2.73-.78,2.73-1.66,0-.02,0-.03,0-.05H0V11.15H9.48s0-.08,0-.11c0-.89-.79-1.63-1.85-1.77V4.96c6.74-.47,12.31-2.38,14.81-4.96h0Z"/><polygon class="cls-1" points="1.3 12.35 43.6 12.35 43.6 21.9 1.3 21.9 1.3 12.35 1.3 12.35"/><path class="cls-1" d="M35.13,6.7c-5.62-.59-10.03-2.13-12.69-4.2-2.66,2.07-7.06,3.61-12.68,4.2v1.39c1.07,.56,1.8,1.65,1.8,2.9,0,.05,0,.11,0,.16h-.94c-.02-1.11-.75-2.05-1.78-2.44v-2.77c6.17-.58,10.93-2.29,13.61-4.6,2.68,2.31,7.45,4.01,13.61,4.6v2.77c-1.03,.39-1.76,1.33-1.78,2.44h-.94c0-.05,0-.11,0-.16,0-1.25,.73-2.34,1.8-2.9v-1.39h0Z"/><path class="cls-1" d="M11.2,23.09c0,.07,0,.13,0,.2,0,.86-.44,1.63-1.14,2.17,3.98,3.3,9.27,6.78,12.39,6.87h-.07c3.12-.09,8.41-3.58,12.39-6.87-.7-.54-1.14-1.31-1.14-2.17,0-.07,0-.13,0-.2h.93c.06,1.05,.76,1.92,1.74,2.2-4.13,3.63-10.43,8.03-13.84,7.95-.02,0-.05,0-.07,0h.04s-.05,0-.07,0c-3.41,.08-9.71-4.32-13.84-7.95,.98-.28,1.69-1.16,1.74-2.2h.93Z"/><polygon class="cls-1" points="15.27 23.06 16.51 23.06 17.13 24.85 17.21 24.85 17.96 23.06 19.2 23.06 17.63 26.27 17.63 29.55 16.49 28.86 16.49 26.29 15.27 23.06 15.27 23.06"/><polygon class="cls-1" points="13.6 11.15 12.54 11.15 12.54 7.37 13.58 7.19 14.36 8.86 14.39 8.86 15.18 6.81 16.28 6.56 16.28 11.15 15.22 11.15 15.22 9.49 15.19 9.49 14.46 11.16 14.42 11.16 13.63 9.64 13.6 9.64 13.6 11.15 13.6 11.15"/><polygon class="cls-1" points="23.02 5.26 23.02 11.15 21.84 11.15 21.84 5.29 20.5 5.93 20.49 4.72 22.46 3.67 24.47 4.7 24.47 5.96 23.02 5.26 23.02 5.26"/><path class="cls-1" d="M12.68,26.32l2.67,1.85v-1.32l-.04-.02-1.6-1.13-.1-.06c-.07-.03-.11-.1-.11-.18v-1.16c0-.11,.09-.2,.2-.2h1.2s0-1.04,0-1.04h-1.72c-.47,0-.85,.38-.85,.84v1.73c0,.28,.13,.53,.34,.68h0Z"/><path class="cls-1" d="M22.26,30.42l-1.09-.43-.41-.16c-.14-.06-.24-.19-.24-.35v-5c0-.21,.17-.38,.38-.38h1.36v-1.04h-2.06c-.47,0-.85,.38-.85,.85v5.95c0,.28,.13,.53,.34,.68h0c.18,.16,.65,.41,2.56,1.06v-1.18h0Z"/><path class="cls-1" d="M23.99,23.06h-1.17v8.48c.81-.1,1.73-.39,2.73-.82v-1.12s-1.56,.51-1.56,.51v-7.05h0Z"/><path class="cls-1" d="M28.59,24.1v-1.04h-1.92c-.47,0-.85,.38-.85,.85v5.55c.02,1.17,1.08,.49,1.08,.49l1.7-.97v-1.25l-1.23,.73c-.48,.29-.39-.36-.39-.36v-1.52h1.23v-1h-1.23v-1.12c0-.2,.16-.37,.36-.37h1.24Z"/><path class="cls-1" d="M17.45,6.17l2.1-.95c.44-.12,.85,.38,.85,.85v4.15c0,.28-.13,.53-.34,.68h0c-.18,.16-.41,.26-.7,.26h-1.42c-.3,0-.53-.1-.7-.26h0c-.21-.16-.34-.4-.34-.68v-3.24c0-.37,.24-.69,.57-.8h0Z"/><path class="cls-1" d="M27.56,6.17l-2.1-.95c-.44-.12-.85,.38-.85,.85v4.15c0,.28,.13,.53,.34,.68h0c.18,.16,.41,.26,.7,.26h1.42c.3,0,.53-.1,.7-.26h0c.21-.16,.34-.4,.34-.68v-3.24c0-.37-.24-.69-.58-.8h0Z"/><path class="cls-4" d="M25.62,8.96v.87c0,.1,.08,.18,.18,.18h1.08c.1,0,.18-.08,.18-.18v-2.62c0-.1-.08-.14-.18-.18l-1.08-.55c-.1-.03-.18,.08-.18,.18v2.29h0Z"/><path class="cls-4" d="M19.39,8.96v.87c0,.1-.08,.18-.18,.18h-1.08c-.1,0-.18-.08-.18-.18v-2.62c0-.1,.08-.14,.18-.18l1.08-.55c.1-.03,.18,.08,.18,.18v2.29h0Z"/><path class="cls-1" d="M30.51,24.1c-.1,0-.18,.08-.18,.18v.25c0,.1,.08,.18,.18,.18h1.25c.36,0,.65,.28,.65,.63v.91c-.08,.53-3.23,2.35-3.23,2.35v-1.24s1.32-.79,1.32-.79c1.35-.8,.33-.78,.33-.78h-1.04c-.34,0-.62-.27-.62-.61v-1.53c0-.34,.31-.61,.68-.61h.21s2.26,0,2.26,0v1.04h-1.82Z"/><path class="cls-1" d="M31.02,10.01c.2,0,.37,.16,.37,.36v.78h1.07v-1.02c0-.29-.21-.53-.48-.57,.27-.05,.48-.29,.48-.57v-.98c0-.38-.27-.69-.62-.76l-2.91-.66v4.57h1.03v-1.14h1.07Z"/><path class="cls-4" d="M29.96,8.97v-1.14l1.25,.25c.1,0,.18,.08,.18,.18v.52c0,.1-.08,.18-.18,.18h-1.25Z"/><polygon class="cls-4" points="2.22 13.27 42.68 13.27 42.68 20.97 2.22 20.97 2.22 13.27 2.22 13.27"/><polygon class="cls-2" points="4.33 16.43 4.33 14.02 3.39 14.02 3.39 20.22 4.33 20.22 4.33 17.61 5.04 17.61 5.04 20.22 5.97 20.22 5.97 14.02 5.04 14.02 5.04 16.43 4.33 16.43 4.33 16.43"/><polygon class="cls-2" points="7.11 20.22 7.34 18.7 7.85 18.7 8.07 20.22 9.02 20.22 8.26 14.02 6.87 14.02 6.16 20.22 7.11 20.22 7.11 20.22"/><polygon class="cls-2" points="14.03 20.22 14.03 19.19 13.11 19.19 13.11 14.02 12.17 14.02 12.17 20.22 14.03 20.22 14.03 20.22"/><polygon class="cls-2" points="16.14 20.22 16.14 19.27 15.19 19.27 15.19 17.45 16.14 17.45 16.14 16.5 15.19 16.5 15.19 14.97 16.14 14.97 16.14 14.02 14.25 14.02 14.25 20.22 16.14 20.22 16.14 20.22"/><polygon class="cls-2" points="18.83 16.65 20.5 16.65 20.5 17.52 18.83 17.52 18.83 16.65 18.83 16.65"/><polygon class="cls-2" points="26.96 20.22 27.93 20.22 28.79 14.02 27.85 14.02 27.44 17.49 27.43 17.49 27.11 14.02 26.12 14.02 26.96 20.22 26.96 20.22"/><polygon class="cls-2" points="29 14.02 29.93 14.02 29.93 20.22 29 20.22 29 14.02 29 14.02"/><polygon class="cls-2" points="39.73 20.22 39.73 16.78 39.74 16.78 40.36 20.22 41.51 20.22 41.51 14.02 40.58 14.02 40.58 16.74 40.56 16.74 40.01 14.02 38.79 14.02 38.79 20.22 39.73 20.22 39.73 20.22"/><polygon class="cls-2" points="17.16 20.22 18.1 20.22 18.1 17.59 19.1 14.02 18.09 14.02 17.63 15.93 17.24 14.02 16.25 14.02 17.16 17.59 17.16 20.22 17.16 20.22"/><path class="cls-2" d="M22.5,14.03c.47,0,.85,.38,.85,.85v4.4c0,.28-.13,.53-.34,.68h0c-.18,.16-.41,.26-.7,.26h-1.34v-6.2h1.54Z"/><polygon class="cls-2" points="24.49 20.22 24.71 18.7 25.23 18.7 25.45 20.22 26.4 20.22 25.63 14.02 24.24 14.02 23.54 20.22 24.49 20.22 24.49 20.22"/><path class="cls-2" d="M31.9,14.03c.47,0,.85,.38,.85,.85v4.4c0,.28-.13,.53-.34,.68h0c-.18,.16-.41,.26-.7,.26h-1.34v-6.2h1.54Z"/><path class="cls-2" d="M38.43,14.8v4.56c0,.56-.55,1.01-1.22,1.01s-1.22-.45-1.23-1.01v-4.56c0-.56,.55-1.01,1.23-1.01s1.21,.45,1.22,1.01h0Z"/><path class="cls-2" d="M35.57,18.68v.67s0,.02,0,.02c0,.56-.55,1.01-1.22,1.01s-1.22-.45-1.23-1.01v-.14s0-1.37,0-1.37h.92v1.03c0,.21,.14,.39,.31,.39s.31-.17,.31-.38v-.3c0-.25,.08-.79-.63-1.14-1.14-.57-.91-1.67-.91-2.09v-.11s0-.32,0-.32v-.12c0-.56,.55-1.01,1.23-1.01s1.21,.45,1.22,1.01v1.32h-.91v-.9c0-.21-.18-.38-.35-.38s-.31,.17-.31,.38v.52c0,.53,.51,.82,1.09,1.28,.58,.46,.48,1.28,.48,1.66h0Z"/><path class="cls-4" d="M36.9,18.88v-3.66c0-.21,.14-.38,.31-.38s.31,.17,.31,.38v3.66c0,.21-.14,.38-.31,.38s-.31-.18-.31-.39h0Z"/><path class="cls-4" d="M31.6,19.13h-.3v-4.16h.3c.14,0,.25,.16,.25,.37v3.42c0,.2-.11,.37-.25,.37h0Z"/><polygon class="cls-4" points="25.12 17.52 24.71 17.52 24.94 15.51 25.12 17.52 25.12 17.52"/><path class="cls-4" d="M22.2,19.13h-.3v-4.16h.3c.14,0,.25,.16,.25,.37v3.42c0,.2-.11,.37-.25,.37h0Z"/><polygon class="cls-4" points="7.75 17.52 7.34 17.52 7.56 15.51 7.75 17.52 7.75 17.52"/><path class="cls-2" d="M10.98,20.22c-.1,0-.18-.08-.18-.18v-1.19c0-.64,0-1.05-.59-1.05h-.09v2.42h-.94v-6.2h1.65c.56,0,.92,.57,.92,1.62,0,.64-.13,1.15-.46,1.39,.2,.13,.44,.47,.44,1.17,0,.39,.02,1.76,.09,2.01h-.85Z"/><path class="cls-4" d="M10.12,14.97h.25c.26,0,.42,.22,.42,.82,0,.39-.09,.91-.42,.91h-.25v-1.73h0Z"/><path class="cls-4" d="M38.37,23.87v-.14h.09s.11,0,.11,.07c0,.06-.03,.08-.09,.08h-.11Zm0,.1h.06l.14,.25h.15l-.15-.26c.08,0,.14-.04,.14-.15,0-.13-.09-.18-.24-.18h-.22v.59h.13v-.25h0Zm.64-.05c0-.34-.26-.54-.55-.54s-.55,.2-.55,.54,.26,.54,.55,.54,.55-.2,.55-.54h0Zm-.16,0c0,.25-.18,.42-.39,.42h0c-.22,0-.39-.17-.39-.42s.18-.42,.39-.42,.39,.17,.39,.42h0Z"/><path class="cls-3" d="M38.08,37.3c.11,0,.17,.02,.17,.13v.19c0,.1-.05,.13-.17,.13h-.83v-.44h.83Zm-5.12,.68l.35-.65,.34,.65h-.7Zm-4.69,.63h1.64v-.3h-1.27v-.39h.73v-.27h-.73v-.35h1.26v-.27h-1.62v1.59h0Zm8.61,0h.36v-.6h.35l.64,.6h.53l-.73-.6h.21c.24,0,.36-.09,.36-.31v-.37c0-.22-.11-.31-.36-.31h-1.36v1.59h0Zm-4.64,0h.37l.18-.35h1.01l.19,.35h.42l-.91-1.59h-.36l-.9,1.59h0Zm-8.46,0h.26l.44-1.1,.44,1.1h.25l.61-1.59h-.33l-.38,1.06-.43-1.06h-.26l-.42,1.06-.4-1.06h-.38l.61,1.59h0Zm-3.47-1.3h.73v-.28h-1.83v.28h.73v1.3h.37v-1.3h0Zm-5.44,.09v.84c0,.3,.1,.38,.39,.38h1.17c.3,0,.39-.08,.39-.38v-.84c0-.3-.1-.38-.39-.38h-1.17c-.3,0-.39,.08-.39,.38h0Zm.37,.91v-1.01h1.22v1.01h-1.22Zm-4.67,0v-1.01h1.22v1.01h-1.22Zm-.37-.91v.84c0,.3,.1,.38,.39,.38h1.17c.3,0,.39-.08,.39-.38v-.84c0-.3-.1-.38-.39-.38h-1.17c-.3,0-.39,.08-.39,.38h0Zm-3.99,1.21h.37v-.6h.67v-.29h-.67v-.42h1.24v-.28h-1.61v1.59h0Z"/></svg>