<?xml version="1.0" encoding="UTF-8"?><svg id="art" xmlns="http://www.w3.org/2000/svg" viewBox="0 0 380.91 381.04"><defs><style>.cls-1{fill:#225fac;}.cls-1,.cls-2{stroke-width:0px;}.cls-2{fill:#fff;}</style></defs><circle class="cls-2" cx="190.52" cy="190.52" r="190.52"/><path class="cls-1" d="M192.56,297.13c-12.51,0-22.43-5.57-28.82-12.24l-10.6,14.68c8.57,8.57,21.07,14.41,38.48,14.41,24.47,0,36.3-12.51,36.3-29.1,0-20.12-19.04-24.61-33.99-28.01-10.47-2.45-18.08-4.35-18.08-10.47,0-5.44,4.62-9.25,13.32-9.25s18.63,3.13,25.97,9.93l10.74-14.14c-8.97-8.29-20.94-12.64-35.35-12.64-21.35,0-34.4,12.24-34.4,27.33,0,20.26,19.03,24.34,33.85,27.74,10.47,2.45,18.35,4.76,18.35,11.56,0,5.17-5.17,10.2-15.77,10.2Z"/><path class="cls-1" d="M190.52,26.04C99.68,26.04,26.04,99.68,26.04,190.52s73.64,164.48,164.48,164.48,164.48-73.64,164.48-164.48S281.36,26.04,190.52,26.04ZM319.55,187.44l-.15-.03c-3.7-.85-8.3-1.9-8.3-6.93,0-4.04,3.54-6.87,8.61-6.87,3.58,0,6.54,1.06,8.81,3.15l.08.08-2.8,3.69-.1-.09c-1.66-1.53-3.96-2.42-6.32-2.42-1.98,0-3.16.81-3.16,2.16s1.66,1.83,4.37,2.46c3.58.81,8.48,1.93,8.48,7.03,0,4.57-3.4,7.3-9.08,7.3-3.97,0-7.2-1.21-9.58-3.59l-.08-.08,2.77-3.83.1.11c1.07,1.11,3.4,2.98,7.02,2.98,2.59,0,3.77-1.24,3.77-2.39,0-1.57-1.84-2.12-4.43-2.73ZM287.14,173.94h5.01v18.18h9.46v4.44h-14.47v-22.62ZM270.74,173.94h5.01v22.62h-5.01v-22.62ZM238.21,196.39l8.69-22.45h6.14l.03.08,8.69,22.54h-5.47l-1.41-3.86h-9.82l-1.41,3.86h-5.5l.07-.17ZM230.17,176.84l-2.8,3.69-.1-.09c-1.66-1.53-3.96-2.42-6.32-2.42-1.98,0-3.16.81-3.16,2.16s1.66,1.83,4.36,2.46c3.58.81,8.48,1.93,8.48,7.03,0,4.57-3.4,7.3-9.08,7.3-3.97,0-7.2-1.21-9.58-3.59l-.08-.08,2.77-3.83.1.11c1.07,1.11,3.4,2.98,7.02,2.98,2.59,0,3.77-1.24,3.77-2.39,0-1.57-1.84-2.12-4.43-2.73l-.15-.03c-3.7-.85-8.3-1.9-8.3-6.93,0-4.04,3.54-6.87,8.61-6.87,3.58,0,6.54,1.06,8.81,3.15l.08.08ZM152.33,70.2h18.81l.04.05,39.18,54.77v-54.82h18.36v85.3h-17.66l-.04-.05-40.32-56.81v56.86h-18.36v-85.3ZM176.44,187.19v9.33h-4.98v-22.48h4.98v8.73h10.25v-8.73h5.01v22.48h-5.01v-9.33h-10.25ZM143.28,174.05h17.98v4.42h-6.46v18.06h-5.02v-18.06h-6.5v-4.42ZM115.08,174.05h10.52c4.54,0,7.59,2.93,7.59,7.29,0,4-2.45,6.06-4.8,6.68l5.02,8.51h-5.72l-.04-.06-6.69-12.22h3.94c1.89,0,3.21-1.21,3.21-2.94s-1.32-2.94-3.21-2.94h-4.84v18.16h-4.98v-22.48ZM93.58,173.66c6.81,0,11.76,4.89,11.76,11.62s-4.94,11.62-11.76,11.62-11.72-4.89-11.72-11.62,4.93-11.62,11.72-11.62ZM51.98,174.05h5.05l.04.05,10.07,14.08v-14.13h4.98v22.48h-4.75l-.04-.05-10.37-14.61v14.66h-4.98v-22.48ZM190.52,328.35c-71.13,0-129.67-53.88-137.04-123.06h274.08c-7.37,69.17-65.91,123.06-137.04,123.06Z"/><path class="cls-1" d="M93.58,192.46c3.91,0,6.64-2.95,6.64-7.17s-2.73-7.17-6.64-7.17-6.61,2.95-6.61,7.17,2.72,7.17,6.61,7.17Z"/><polygon class="cls-1" points="249.96 178.56 246.42 188.33 253.48 188.33 249.96 178.56"/></svg>