<?xml version="1.0" encoding="utf-8"?>
<!-- Generator: Adobe Illustrator 26.0.2, SVG Export Plug-In . SVG Version: 6.00 Build 0)  -->
<svg version="1.1" baseProfile="tiny" id="katman_1"
	 xmlns="http://www.w3.org/2000/svg" xmlns:xlink="http://www.w3.org/1999/xlink" x="0px" y="0px" viewBox="0 0 300 300"
	 overflow="visible" xml:space="preserve">
<g>
	<path fill="#A61A16" d="M180.9,111c0,0-5,7-5.7,20.4c0,0,19.5,13.3,2.8,39.1c0,0,15.1-7.3,18.4-28.5
		C199.8,120.9,180.9,111,180.9,111"/>
	<path fill="#A61A16" d="M155.4,113.7c-8.6,6.6-12,21.7-12,21.7c20.1,26.1,2.5,50.4,2.5,50.4c4.4-2.4,19.9-13.6,23.2-37.9
		C172.5,123.6,155.4,113.7,155.4,113.7"/>
	<path fill="#A61A16" d="M128.5,113.2c-5.2,2.8-17.7,11.7-16.1,31.3c2.7,19.3,16.9,32.4,16.9,32.4c-8.5-29.1,6-41.2,6-41.2
		c0.9-15.7-4.7-23.5-4.7-23.5C129.9,112.5,129.2,112.9,128.5,113.2"/>
	<path fill="#A61A16" d="M217.3,103.2c0,0-3.2-4.5-9.8-8.3c0,0-8.7-5.7-17.3-12.3c-2.4-1.8-8.5-7.5-8.6-7.5c-3.2-3.1-7.2-7-8.9-8.8
		c-7.6-8.7-17.6-14.2-25.3-14.2c-8.5,0-19.1,4-29.5,19c-10.3,14.9-23.8,13-29.4,39.8C83,137.7,101,151.9,101,151.9
		c-6.7-23.4,7.5-34,7.5-34c-3.2-9.3-2.7-23.8,13.6-38.1c9.7-8.4,21.2-10.1,31.6-7.9c0.3,0.1,4.1,1.2,8.1,3.1
		c0.8,0.4,1.6,0.9,2.5,1.4h0c2.3,1.2,4.7,2.7,7,4.2c0,0,0,0,0,0c0.5,0.4,1,0.7,1.5,1.1c2.9,2.1,9.3,6.5,12,8v0
		c24,13.6,20.9,28.6,19.6,32.6c-0.1,0.3-0.3,0.7-0.4,1c8.2,12.6-2.1,30.1-2.1,30.1C228.6,134.7,226.3,114.3,217.3,103.2"/>
	<g>
		<path fill="#282727" d="M191.3,225.4h1.7c2.5,0,4.3-1.8,4.3-4.3s-1.5-3.8-4.4-3.8h-1.6V225.4z M212.4,247.9h-11.2l-0.5-0.8
			c-0.7-1.2-1.4-2.3-2-3.4c-3-5.1-5.4-9.2-6.4-10.1h-1v14.3h-9.8v-39.4h11.3c9,0,14.4,4.4,14.4,11.8c0,4.7-2.6,8-5.6,9.9
			c1.6,2.1,3.9,5.9,7.8,12.4L212.4,247.9z"/>
	</g>
	<polygon fill="#282727" points="155.9,208.5 152.1,217.3 152.1,247.9 178.7,247.9 178.7,239.2 161.9,239.2 161.9,232.2 
		174.9,232.2 174.9,223.5 161.9,223.5 161.9,217.3 178.7,217.3 178.7,208.5 	"/>
	<g>
		<path fill="#282727" d="M74.7,239.5c-5.9,0-9.6-4.3-9.6-11.2c0-6.9,3.7-11.1,9.6-11.1c5.9,0,9.6,4.3,9.6,11.1
			C84.3,235.2,80.6,239.5,74.7,239.5 M89.5,214.5c-3.5-3.9-8.7-6-14.8-6c-5.6,0-10.5,1.9-14.1,5.6c-3.6,3.6-5.6,8.7-5.6,14.3
			c0,6,2.2,11.2,6.1,14.7c3.4,3.1,8.1,4.8,13.6,4.8c5.6,0,10.5-1.9,14.1-5.6c3.6-3.5,5.5-8.6,5.5-14.2
			C94.4,222.7,92.7,218,89.5,214.5"/>
	</g>
	<polygon fill="#282727" points="96.9,208.5 96.9,247.9 127.1,247.9 123.6,239.1 106.7,239.1 106.7,208.5 	"/>
	<g>
		<path fill="#282727" d="M136.4,247.9h-6.9l-15.8-39.4h10.7l8.2,21.4c0.3,0.8,0.6,1.6,0.8,2.3c0.3-0.7,0.6-1.4,0.9-2.2l9-21.5h10.3
			L136.4,247.9z"/>
	</g>
	<rect x="214.5" y="208.5" fill="#282727" width="9.8" height="39.4"/>
	<g>
		<path fill="#282727" d="M263.2,247.9h-9.1l-16.1-21c-0.2-0.3-0.4-0.6-0.6-0.8v0.1v21.8h-9.8v-39.4h8.5l16.8,22
			c0.2,0.2,0.3,0.4,0.5,0.6v-22.6h9.8V247.9z"/>
		<path fill="#282727" d="M22.7,247.8h-6.9L0,208.5h10.7l8.2,21.3c0.3,0.9,0.6,1.7,0.9,2.4c0.9-2.3,1.9-4.6,2-4.7l1.5-3.6l4.9,12.1
			L22.7,247.8z"/>
		<path fill="#282727" d="M42.1,247.8h-6.9l-15.8-39.2h10.7l8.2,21.3c0.3,0.8,0.6,1.6,0.8,2.3c0.3-0.7,0.6-1.4,0.9-2.2l9-21.4h10.3
			L42.1,247.8z"/>
	</g>
	<polygon fill="#282727" points="266.6,208.5 266.6,247.9 293.3,247.9 293.3,239.2 276.4,239.2 276.4,232.2 289.4,232.2 
		289.4,223.5 276.4,223.5 276.4,217.3 293.3,217.3 293.3,208.5 	"/>
	<path fill="#A61A16" d="M180.9,111c0,0-5,7-5.7,20.4c0,0,19.5,13.3,2.8,39.1c0,0,15.1-7.3,18.4-28.5
		C199.8,120.9,180.9,111,180.9,111"/>
	<path fill="#A61A16" d="M155.4,113.7c-8.6,6.6-12,21.7-12,21.7c20.1,26.1,2.5,50.4,2.5,50.4c4.4-2.4,19.9-13.6,23.2-37.9
		C172.5,123.6,155.4,113.7,155.4,113.7"/>
	<path fill="#A61A16" d="M128.5,113.2c-5.2,2.8-17.7,11.7-16.1,31.3c2.7,19.3,16.9,32.4,16.9,32.4c-8.5-29.1,6-41.2,6-41.2
		c0.9-15.7-4.7-23.5-4.7-23.5C129.9,112.5,129.2,112.9,128.5,113.2"/>
	<path fill="#A61A16" d="M217.3,103.2c0,0-3.2-4.5-9.8-8.3c0,0-8.7-5.7-17.3-12.3c-2.4-1.8-8.5-7.5-8.6-7.5c-3.2-3.1-7.2-7-8.9-8.8
		c-7.6-8.7-17.6-14.2-25.3-14.2c-8.5,0-19.1,4-29.5,19c-10.3,14.9-23.8,13-29.4,39.8C83,137.7,101,151.9,101,151.9
		c-6.7-23.4,7.5-34,7.5-34c-3.2-9.3-2.7-23.8,13.6-38.1c9.7-8.4,21.2-10.1,31.6-7.9c0.3,0.1,4.1,1.2,8.1,3.1
		c0.8,0.4,1.6,0.9,2.5,1.4h0c2.3,1.2,4.7,2.7,7,4.2c0,0,0,0,0,0c0.5,0.4,1,0.7,1.5,1.1c2.9,2.1,9.3,6.5,12,8v0
		c24,13.6,20.9,28.6,19.6,32.6c-0.1,0.3-0.3,0.7-0.4,1c8.2,12.6-2.1,30.1-2.1,30.1C228.6,134.7,226.3,114.3,217.3,103.2"/>
	<g>
		<path fill="#282727" d="M191.3,225.4h1.7c2.5,0,4.3-1.8,4.3-4.3s-1.5-3.8-4.4-3.8h-1.6V225.4z M212.4,247.9h-11.2l-0.5-0.8
			c-0.7-1.2-1.4-2.3-2-3.4c-3-5.1-5.4-9.2-6.4-10.1h-1v14.3h-9.8v-39.4h11.3c9,0,14.4,4.4,14.4,11.8c0,4.7-2.6,8-5.6,9.9
			c1.6,2.1,3.9,5.9,7.8,12.4L212.4,247.9z"/>
	</g>
	<polygon fill="#282727" points="155.9,208.5 152.1,217.3 152.1,247.9 178.7,247.9 178.7,239.2 161.9,239.2 161.9,232.2 
		174.9,232.2 174.9,223.5 161.9,223.5 161.9,217.3 178.7,217.3 178.7,208.5 	"/>
	<g>
		<path fill="#282727" d="M74.7,239.5c-5.9,0-9.6-4.3-9.6-11.2c0-6.9,3.7-11.1,9.6-11.1c5.9,0,9.6,4.3,9.6,11.1
			C84.3,235.2,80.6,239.5,74.7,239.5 M89.5,214.5c-3.5-3.9-8.7-6-14.8-6c-5.6,0-10.5,1.9-14.1,5.6c-3.6,3.6-5.6,8.7-5.6,14.3
			c0,6,2.2,11.2,6.1,14.7c3.4,3.1,8.1,4.8,13.6,4.8c5.6,0,10.5-1.9,14.1-5.6c3.6-3.5,5.5-8.6,5.5-14.2
			C94.4,222.7,92.7,218,89.5,214.5"/>
	</g>
	<polygon fill="#282727" points="96.9,208.5 96.9,247.9 127.1,247.9 123.6,239.1 106.7,239.1 106.7,208.5 	"/>
	<g>
		<path fill="#282727" d="M136.4,247.9h-6.9l-15.8-39.4h10.7l8.2,21.4c0.3,0.8,0.6,1.6,0.8,2.3c0.3-0.7,0.6-1.4,0.9-2.2l9-21.5h10.3
			L136.4,247.9z"/>
	</g>
	<rect x="214.5" y="208.5" fill="#282727" width="9.8" height="39.4"/>
	<g>
		<path fill="#282727" d="M263.2,247.9h-9.1l-16.1-21c-0.2-0.3-0.4-0.6-0.6-0.8v0.1v21.8h-9.8v-39.4h8.5l16.8,22
			c0.2,0.2,0.3,0.4,0.5,0.6v-22.6h9.8V247.9z"/>
		<path fill="#282727" d="M22.7,247.8h-6.9L0,208.5h10.7l8.2,21.3c0.3,0.9,0.6,1.7,0.9,2.4c0.9-2.3,1.9-4.6,2-4.7l1.5-3.6l4.9,12.1
			L22.7,247.8z"/>
		<path fill="#282727" d="M42.1,247.8h-6.9l-15.8-39.2h10.7l8.2,21.3c0.3,0.8,0.6,1.6,0.8,2.3c0.3-0.7,0.6-1.4,0.9-2.2l9-21.4h10.3
			L42.1,247.8z"/>
	</g>
	<polygon fill="#282727" points="266.6,208.5 266.6,247.9 293.3,247.9 293.3,239.2 276.4,239.2 276.4,232.2 289.4,232.2 
		289.4,223.5 276.4,223.5 276.4,217.3 293.3,217.3 293.3,208.5 	"/>
	<path fill="#282727" d="M296.9,209.5v2.4h0.4V211h0.3c0.2,0,0.4,0,0.5,0.1c0.2,0.1,0.2,0.3,0.2,0.6v0.2l0,0.1c0,0,0,0,0,0
		c0,0,0,0,0,0h0.4l0,0c0,0,0-0.1,0-0.1c0-0.1,0-0.1,0-0.2v-0.2c0-0.1,0-0.2-0.1-0.4c-0.1-0.1-0.2-0.2-0.4-0.2c0.1,0,0.3-0.1,0.3-0.1
		c0.2-0.1,0.2-0.3,0.2-0.5c0-0.3-0.1-0.5-0.4-0.6c-0.1-0.1-0.4-0.1-0.7-0.1H296.9z M298.4,210.2c0,0.2-0.1,0.3-0.2,0.4
		c-0.1,0-0.2,0.1-0.4,0.1h-0.4v-0.9h0.4c0.2,0,0.4,0,0.5,0.1C298.3,210,298.4,210.1,298.4,210.2 M300,210.7c0-0.6-0.2-1.1-0.6-1.6
		c-0.4-0.4-0.9-0.6-1.6-0.6c-0.6,0-1.1,0.2-1.5,0.6c-0.4,0.4-0.6,0.9-0.6,1.6c0,0.6,0.2,1.1,0.6,1.6c0.4,0.4,0.9,0.6,1.6,0.6
		c0.6,0,1.1-0.2,1.6-0.6C299.8,211.9,300,211.3,300,210.7 M297.8,208.8c0.5,0,1,0.2,1.3,0.6c0.4,0.4,0.6,0.8,0.6,1.3
		c0,0.5-0.2,1-0.6,1.3c-0.4,0.4-0.8,0.6-1.3,0.6c-0.5,0-1-0.2-1.3-0.6c-0.4-0.4-0.5-0.8-0.5-1.3c0-0.5,0.2-1,0.6-1.3
		C296.8,209,297.3,208.8,297.8,208.8"/>
</g>
</svg>
